<svg width="120" height="70" viewBox="0 0 120 70" fill="none" xmlns="http://www.w3.org/2000/svg">
<path d="M77.5556 16C69.3195 16 61.9589 20.3208 61.9589 28.3019C61.9589 37.4558 75.0126 38.0879 75.0126 42.6872C75.0126 44.6237 72.8204 46.357 69.0745 46.357C63.7598 46.357 59.7875 43.9351 59.7875 43.9351L58.0876 51.9903C58.0876 51.9903 62.6637 54.0361 68.7389 54.0361C77.7437 54.0361 84.8303 49.5038 84.8303 41.3852C84.8303 31.712 71.7219 31.0986 71.7219 26.8307C71.7219 25.3137 73.5217 23.6521 77.256 23.6521C81.4699 23.6521 84.9069 25.4136 84.9069 25.4136L86.5709 17.6345C86.5709 17.6345 82.8296 16 77.5544 16H77.5556ZM2.19972 16.5875L2 17.7614C2 17.7614 5.46491 18.403 8.58611 19.6839C12.6049 21.1515 12.8905 22.007 13.5675 24.6603L20.942 53.4298H30.8281L46.0579 16.5875H36.195L26.4088 41.6367L22.4155 20.403C22.0498 17.973 20.1942 16.5864 17.9242 16.5864H2.20088L2.19972 16.5875ZM50.0245 16.5875L42.2876 53.4298H51.6931L59.402 16.5875H50.0245ZM102.481 16.5875C100.213 16.5875 99.0115 17.8167 98.1302 19.9635L84.3507 53.4298H94.2136L96.1214 47.8517H108.137L109.297 53.4298H118L110.408 16.5875H102.481ZM103.764 26.5416L106.688 40.3664H98.8559L103.765 26.5416H103.764Z" fill="#1434CB"/>
</svg>
