<svg width="108" height="32" viewBox="0 0 108 32" fill="none" xmlns="http://www.w3.org/2000/svg">
<path fill-rule="evenodd" clip-rule="evenodd" d="M4.45029 18.4523L4.87907 19.0955L4.05214 19.2902C3.40735 19.4428 2.75935 19.5954 2.11295 19.7449C1.46333 19.8976 0.812105 20.0455 0.160874 20.1888C-0.0406204 20.2324 -0.0406204 20.3009 0.0931719 20.4333C0.206009 20.547 0.315622 20.6669 0.425235 20.7868L1.28924 21.726C4.41483 25.1196 7.54041 28.5147 10.6644 31.9115C10.7401 31.994 10.7966 32.0189 10.911 31.9847C11.5832 31.7822 12.257 31.5875 12.9308 31.3913L14.172 31.0284L15.9693 30.4973L17.807 29.9538L20.7891 29.0816L23.0265 28.4275C24.2499 28.0756 25.4702 27.7158 26.6888 27.3467H26.6904L27.3626 27.1442L27.303 27.0819C27.2708 27.0461 27.2369 27.0103 27.2014 26.9776L27.0805 26.8701L27.0773 26.8686C26.1488 26.0447 25.2187 25.2224 24.2886 24.4016L23.3747 23.6027C22.7669 23.0731 22.1592 22.5436 21.566 22.0016C20.9583 21.4503 20.341 20.9068 19.7171 20.3726L19.6897 20.3492L18.7225 19.5082C18.7451 19.4132 18.7886 19.3244 18.8515 19.2481L18.8805 19.2076L20.7294 16.5398C22.8347 13.4997 24.9366 10.4581 27.0338 7.41331L28.8069 4.85447L29.9772 3.16311L31.4892 0.974943L32.1647 0L31.9067 0.247629C31.054 1.10265 30.1981 1.95612 29.3421 2.80802L27.98 4.16453L24.3628 7.77774L21.213 10.9237C19.4705 12.6649 17.728 14.4061 15.9806 16.1411C15.9323 16.1909 15.8839 16.2423 15.8371 16.2953C15.7034 16.4432 15.568 16.5912 15.3777 16.6768L15.3197 16.6815C15.2778 16.6846 15.2359 16.6877 15.1956 16.6971L14.9812 16.7469C13.7545 17.0319 12.5278 17.3169 11.3027 17.605L9.23135 18.0972L8.30931 18.3183C8.1723 18.3339 8.05785 18.2763 7.93856 18.2124L7.65486 18.0629L6.19443 17.2904C5.19824 16.764 4.19882 16.2392 3.19941 15.7175C3.1301 15.6801 3.06078 15.6427 2.99308 15.6022C2.79965 15.4901 2.59493 15.3733 2.33702 15.3094L2.69648 15.8389L3.45249 16.9572L4.4519 18.4523H4.45029ZM10.5773 19.5923C10.4371 19.5191 10.2952 19.4459 10.155 19.3727C10.4403 19.2606 10.7385 19.1983 11.0367 19.136C11.1915 19.1048 11.3462 19.0706 11.4994 19.0316C11.9475 18.9164 12.3988 18.8167 12.8502 18.7155L13.3435 18.6065C13.3838 18.5971 13.4241 18.594 13.466 18.5909L13.524 18.5862L13.1323 18.9787L11.9926 20.1249C11.9008 20.2184 11.8282 20.2636 11.6831 20.1826C11.3172 19.9801 10.9497 19.7839 10.5773 19.5923ZM17.6925 20.9317C17.7538 20.8367 17.8134 20.7401 17.9085 20.6716L18.4485 21.1637C18.8418 21.5251 19.2368 21.8864 19.6381 22.2415C20.7085 23.1884 21.782 24.1306 22.8556 25.0744L23.9582 26.0416L24.2967 26.3359L24.4805 26.4932L23.8373 26.6879C23.3747 26.8281 22.9265 26.9636 22.4784 27.0944L21.1679 27.4744L19.8267 27.8637C19.0175 28.1005 18.2083 28.3403 17.3975 28.5802L15.1359 29.2467L13.8109 29.6361C13.0146 29.8666 12.2183 30.0986 11.4252 30.3369C11.2721 30.3836 11.1899 30.3572 11.0867 30.2435L7.22124 26.0478L7.21802 26.0447L5.0854 23.7304L4.25686 22.8271C3.78294 22.3069 3.30902 21.7883 2.82866 21.2759C2.66424 21.0983 2.73517 21.0672 2.91087 21.0267C3.66849 20.8554 4.42289 20.6809 5.17889 20.505H5.18051L5.47711 20.4364L5.64959 20.3913L5.73018 20.3695C5.98004 20.6545 6.18637 20.9722 6.3927 21.2883L6.63449 21.6543C7.13581 22.3894 7.63068 23.1276 8.12394 23.8659L9.06532 25.2675C9.61016 26.0774 10.1582 26.8841 10.7047 27.6909L10.7079 27.694L11.6719 29.1175C11.8556 29.3885 11.8685 29.3838 12.0523 29.1175L13.3273 27.2782L14.7862 25.1725C15.7388 23.7895 16.6883 22.405 17.6361 21.0173L17.6925 20.9317Z" fill="white"/>
<path d="M78.3845 23.5976C78.1072 23.9091 77.7994 24.1941 77.4673 24.4495C76.3115 25.2905 75.0204 25.5942 73.6083 25.4369C72.5283 25.317 71.5095 25.0257 70.5939 24.4215C69.4639 23.6895 68.6531 22.5822 68.313 21.3098C67.6457 18.8989 67.9487 16.5518 69.0384 14.3325C69.9862 12.3982 71.5498 11.1056 73.6341 10.5168C75.4282 9.98733 77.3609 10.0917 79.0825 10.8096C80.1786 11.2597 81.0088 12.0151 81.5004 13.1099C81.7793 13.7267 81.8808 14.3808 81.9195 15.0505C81.9276 15.1595 81.8921 15.2078 81.7728 15.2062C81.0168 15.2016 80.2592 15.2031 79.5032 15.2093C79.3517 15.2093 79.3452 15.133 79.3372 15.0271L79.3356 15.0116C79.2695 14.2796 79.0099 13.6255 78.4554 13.1271C77.9154 12.6427 77.2465 12.4138 76.5388 12.3328C75.3266 12.1926 74.1741 12.3608 73.1489 13.0897C72.3107 13.6862 71.7207 14.4805 71.3064 15.404C70.6326 16.8789 70.4021 18.508 70.6423 20.1043C70.8293 21.3611 71.4176 22.3937 72.6105 22.9746C73.4858 23.3998 74.4175 23.4637 75.3669 23.3126C76.916 23.0665 77.8977 22.1165 78.528 20.7429C78.6811 20.4096 78.7907 20.0623 78.9003 19.715L78.9277 19.6309C78.989 19.4362 78.96 19.3786 78.7391 19.3801C78.2088 19.3848 77.6785 19.3848 77.1481 19.3848C76.5259 19.3848 75.9037 19.3848 75.2831 19.3926C75.0123 19.3957 74.9833 19.31 75.0365 19.0811C75.1493 18.5952 75.2509 18.1046 75.3395 17.614C75.3718 17.438 75.4798 17.4396 75.599 17.4411H80.4365C80.7686 17.4427 81.1039 17.4442 81.4359 17.4411C81.5955 17.438 81.6729 17.4474 81.6262 17.6545C81.4005 18.6902 81.1829 19.7259 80.9652 20.7615L80.6977 22.0246L80.501 22.9435C80.3608 23.5976 80.2205 24.2502 80.0883 24.9058C80.0513 25.0865 79.9884 25.1519 79.7982 25.1457C79.4033 25.1317 79.0067 25.1317 78.6118 25.1472C78.4184 25.155 78.3764 25.0818 78.3813 24.9074C78.3893 24.6146 78.3877 24.3218 78.3861 24.0088V24.0056L78.3845 23.5976Z" fill="white"/>
<path fill-rule="evenodd" clip-rule="evenodd" d="M108.001 25.1574L107.361 25.1528C106.792 25.1465 106.225 25.145 105.656 25.1481C105.446 25.1497 105.376 25.0936 105.345 24.8818C105.253 24.2479 105.155 23.6172 105.056 22.9848L104.834 21.5302C104.807 21.3433 104.757 21.2639 104.544 21.2655C102.767 21.2748 100.989 21.2732 99.2131 21.2655C99.0357 21.2655 98.9487 21.3293 98.8665 21.4726L97.9364 23.0736L96.8241 24.9939C96.7564 25.1138 96.6791 25.145 96.5517 25.145H96.4872C94.8737 25.1387 93.2585 25.1403 91.6449 25.1481C91.4434 25.1497 91.387 25.0593 91.3483 24.902C91.2113 24.3289 91.2468 23.7495 91.2951 23.1733C91.3161 22.9085 91.3467 22.6438 91.3757 22.379C91.4273 21.9274 91.4789 21.4788 91.4886 21.0272C91.4998 20.6036 91.495 20.1799 91.2403 19.8124C90.9276 19.3576 90.4456 19.2128 89.9395 19.1738C89.0416 19.1038 88.1421 19.1115 87.2411 19.1193C86.7865 19.1224 86.3335 19.1271 85.879 19.1193C85.7161 19.1193 85.7 19.2159 85.6839 19.314L85.6758 19.3638C85.4469 20.4618 85.2181 21.5598 84.9924 22.6578L84.8505 23.3275C84.7393 23.8586 84.6281 24.3896 84.5249 24.9223C84.4911 25.0998 84.4169 25.1481 84.246 25.145C83.5255 25.1356 82.8033 25.1372 82.0828 25.1465C81.8894 25.1496 81.87 25.0874 81.9055 24.9176C82.7695 20.8387 83.6174 16.7552 84.4491 12.6701L84.6684 11.6219L84.8602 10.7155V10.714C84.8828 10.6049 84.8973 10.5302 85.0504 10.5317L87.5119 10.538C88.882 10.538 90.2506 10.5411 91.6191 10.5567C92.438 10.5676 93.2424 10.7062 93.9935 11.0753C94.943 11.5425 95.5249 12.2854 95.7264 13.3133C95.9247 14.3287 95.8505 15.3208 95.404 16.2661C94.9784 17.1601 94.2498 17.7005 93.3342 18.0151C93.1585 18.0727 92.9796 18.1257 92.7991 18.1709L92.5138 18.2487C92.9506 18.4341 93.3101 18.6599 93.5696 19.0119C93.9403 19.5118 94.0371 20.0989 94.0612 20.7001C94.0806 21.2218 94.0209 21.7358 93.9597 22.2513C93.9274 22.5363 93.8936 22.8229 93.8743 23.111C93.842 23.5922 93.8162 24.0735 93.8968 24.5532L93.9 24.5734C93.9242 24.7105 93.9484 24.8537 94.0564 24.9955L94.2579 24.67C94.4014 24.4395 94.5416 24.2136 94.6786 23.9847L96.4534 21.0241C97.3303 19.5601 98.2088 18.0977 99.0873 16.6353V16.6321C100.208 14.771 101.328 12.9099 102.432 11.0379C102.653 10.6641 102.874 10.4881 103.328 10.5239C103.822 10.5598 104.32 10.5504 104.818 10.5395L105.253 10.5317C105.406 10.5302 105.463 10.5753 105.487 10.7295C105.687 11.9303 105.891 13.1311 106.099 14.3303L106.427 16.1774L106.428 16.1867L106.731 17.8999C107.013 19.5134 107.292 21.1284 107.569 22.7434L107.624 23.0518C107.719 23.6109 107.816 24.17 107.914 24.7291C107.922 24.8086 107.931 24.8896 108.001 24.9472V25.159V25.1574ZM88.4065 17.1788H89.8299C90.394 17.1757 90.9502 17.1258 91.4918 16.9483C92.7652 16.5309 93.4487 15.422 93.223 14.106C93.1424 13.6388 92.9119 13.2588 92.4847 13.0127C91.9399 12.6981 91.337 12.6436 90.7309 12.6342C90.0007 12.6249 89.2721 12.6265 88.5419 12.6296H87.6199C87.0766 12.6296 87.0766 12.6296 86.9686 13.1747L86.9606 13.2058V13.2089L86.9525 13.251L86.7671 14.1449C86.5721 15.0887 86.3754 16.0325 86.1739 16.9748C86.1369 17.1539 86.1901 17.1819 86.3513 17.1803C86.8606 17.1757 87.37 17.1772 87.881 17.1772H88.4065V17.1788ZM103.619 13.117L103.535 13.2416C103.498 13.2977 103.462 13.3553 103.428 13.413L102.51 15.0373C101.741 16.3923 100.973 17.7472 100.201 19.1022C100.101 19.2751 100.121 19.3202 100.324 19.3187C101.652 19.3125 102.979 19.314 104.305 19.3187C104.46 19.3187 104.515 19.3031 104.486 19.1162C104.384 18.4434 104.291 17.7675 104.196 17.0916V17.0791C104.054 16.0559 103.907 15.0327 103.752 14.011L103.751 14.0017C103.706 13.712 103.662 13.4176 103.619 13.117ZM67.709 16.601C67.688 18.392 67.4108 19.9759 66.6531 21.4508C65.9116 22.8976 64.8316 24.0112 63.3486 24.7151C61.4949 25.5951 59.5686 25.7197 57.6246 25.1325C55.924 24.6217 54.7005 23.5237 54.0138 21.8604C53.5238 20.6783 53.4399 19.4526 53.5254 18.1958C53.6479 16.3954 54.1202 14.7087 55.2131 13.2432C56.5575 11.4444 58.3677 10.457 60.6051 10.2452C61.8785 10.1237 63.1165 10.2685 64.2836 10.8136C66.0293 11.6297 67.0706 13.0205 67.5236 14.8707C67.6735 15.489 67.7106 16.1166 67.709 16.601ZM61.1806 12.2963C60.6244 12.2714 60.0038 12.4053 59.4074 12.6701C58.2984 13.1607 57.5246 13.9985 56.9895 15.056C56.1384 16.7334 55.8498 18.5119 56.1932 20.3637C56.356 21.2436 56.7606 22.0286 57.4972 22.5799C58.7127 23.4926 60.0796 23.5813 61.4804 23.1453C62.6603 22.7793 63.4857 21.9414 64.074 20.8839C65.0299 19.1629 65.3426 17.3174 65.0251 15.3753C64.8961 14.5717 64.5721 13.8444 63.9741 13.2728C63.2229 12.5564 62.2993 12.2838 61.1806 12.2963Z" fill="white"/>
<path d="M52.0627 15.4076H51.7548C51.5065 15.4045 51.2567 15.4045 51.0084 15.4107C50.8376 15.417 50.7876 15.364 50.7828 15.1896C50.7634 14.509 50.5926 13.8689 50.1541 13.3316C49.6222 12.6821 48.8968 12.4003 48.0843 12.3193C45.6213 12.0701 43.9577 13.4499 43.0696 15.417C42.407 16.8778 42.1765 18.4866 42.4054 20.0659C42.5747 21.2962 43.134 22.3163 44.2705 22.9206C45.4746 23.5591 47.4009 23.623 48.5744 22.606C49.2788 21.9939 49.7189 21.2168 49.9929 20.3415C50.0687 20.1048 50.1654 20.0145 50.4265 20.0223C51.0858 20.0441 51.7451 20.0378 52.4044 20.0254C52.6107 20.0207 52.6655 20.0674 52.6107 20.273C52.269 21.5719 51.7193 22.7586 50.7457 23.7164C49.3852 25.0558 47.712 25.5449 45.8437 25.4654C44.5397 25.4094 43.3097 25.0916 42.2297 24.3285C40.9128 23.4003 40.1713 22.103 39.8843 20.544C39.6425 19.242 39.7296 17.94 39.9923 16.6504C40.2905 15.1834 40.8886 13.8564 41.8912 12.7242C42.7375 11.7586 43.8368 11.0297 45.0732 10.6139C46.4547 10.1436 47.8635 10.0906 49.2836 10.3678C50.4765 10.6014 51.5275 11.1154 52.319 12.0701C53.083 12.9905 53.3571 14.0745 53.3683 15.2472C53.37 15.403 53.291 15.4107 53.1717 15.4092C52.9041 15.4076 52.6381 15.4061 52.3705 15.4076H52.0627Z" fill="white"/>
<path fill-rule="evenodd" clip-rule="evenodd" d="M34.1774 20.0966H33.1651C32.1834 20.0997 31.2017 20.0997 30.2217 20.0919C29.9895 20.0888 29.9186 20.1651 29.9057 20.3816C29.8509 21.3145 29.9025 22.224 30.4264 23.0417C30.8519 23.7036 31.458 24.0945 32.2318 24.2378C33.3537 24.4465 34.3805 24.244 35.2816 23.5291C35.8361 23.0884 36.2214 22.5168 36.4648 21.8565C36.526 21.6883 36.605 21.626 36.7855 21.6353C37.0515 21.6493 37.3175 21.6431 37.5851 21.6369H37.656C37.8075 21.6322 37.8817 21.6462 37.8204 21.8378C37.224 23.6755 36.0827 24.9526 34.1274 25.3311C32.9249 25.5616 31.7304 25.5024 30.6117 24.9106C29.701 24.4278 29.0772 23.6864 28.8257 22.7099C28.1648 20.134 28.671 17.7838 30.428 15.767C31.5015 14.5335 32.9152 13.9884 34.5546 14.0273C35.467 14.0491 36.3116 14.2718 37.037 14.8372C37.8817 15.4944 38.3024 16.3868 38.4459 17.4225C38.5426 18.1233 38.4991 18.8242 38.4555 19.525L38.4346 19.863C38.4249 20.0577 38.3491 20.1028 38.1605 20.1013C37.1595 20.095 36.1585 20.0966 35.1559 20.0966H34.1774ZM33.6132 18.969L34.4772 18.9675C35.2703 18.9659 36.0634 18.9643 36.8549 18.9752C37.1047 18.9784 37.1772 18.8974 37.1611 18.6638C37.1531 18.5438 37.1579 18.4224 37.1611 18.2993C37.1676 18.1763 37.1692 18.0517 37.1627 17.9287C37.1095 17.1157 36.8516 16.3899 36.2246 15.8308C35.2026 14.9197 33.3714 14.9369 32.1737 15.7763C31.1421 16.499 30.5408 17.5082 30.183 18.6887C30.1153 18.9145 30.1636 18.9752 30.399 18.9721C31.1856 18.9659 31.9739 18.9675 32.7621 18.9675L33.6132 18.969Z" fill="#0168AA"/>
<path d="M15.3534 16.6719L8.23498 18.3259L10.1548 19.4051L13.5238 18.5859L15.3534 16.6719Z" fill="#0168AA"/>
<path d="M4.87907 19.096L4.05214 19.2907C3.40735 19.4433 2.75935 19.5959 2.11295 19.7454C1.46334 19.898 0.812105 20.046 0.160874 20.1893C-0.0406204 20.2329 -0.0406204 20.3014 0.093172 20.4338C0.206009 20.5475 0.315622 20.6674 0.425235 20.7873L1.28924 21.7265C4.41483 25.1201 7.54041 28.5152 10.6644 31.912C10.7401 31.9945 10.7966 32.0194 10.911 31.9852C11.4765 31.8148 12.0431 31.65 12.6099 31.4852L12.9308 31.3918L14.172 31.0289L17.807 29.9543L23.0265 28.428C24.25 28.076 25.4702 27.7163 26.6888 27.3472H26.6905L27.3626 27.1447L27.303 27.0824C27.2708 27.0466 27.2369 27.0108 27.2014 26.9781L27.0805 26.8706L27.0773 26.869C26.1488 26.0452 25.2187 25.2229 24.2886 24.4021L23.3746 23.6031C22.7669 23.0736 22.1592 22.5441 21.566 22.0021C20.9583 21.4508 20.341 20.9073 19.7171 20.3731L18.7193 19.5227L17.9214 20.7017C17.9892 20.7174 19.1393 21.7809 19.5184 22.1315C19.5318 22.1439 19.5442 22.1554 19.5556 22.1659C19.6049 22.2115 19.6346 22.239 19.6381 22.242C20.5243 23.0259 21.4127 23.8067 22.3015 24.5879L22.8556 25.0749L23.9582 26.0421L24.2967 26.3364L24.4805 26.4937L23.8373 26.6884C23.3747 26.8286 22.9265 26.964 22.4784 27.0949L19.8267 27.8642C19.1251 28.0695 18.4234 28.2771 17.7207 28.485L17.3975 28.5806L13.8109 29.6366C13.0146 29.8671 12.2183 30.0991 11.4252 30.3374C11.2721 30.3841 11.1899 30.3577 11.0867 30.244L7.22124 26.0483L7.21802 26.0452L5.0854 23.7309L4.25686 22.8275C3.78294 22.3074 3.30903 21.7888 2.82866 21.2764C2.66424 21.0988 2.73517 21.0677 2.91087 21.0272C3.09099 20.9867 3.84842 20.8089 4.92384 20.5565L5.04833 20.5272C5.15393 20.5022 5.24589 20.4817 5.33218 20.4625C5.46579 20.4327 5.58603 20.4059 5.72212 20.3699C5.73912 20.3656 5.46831 19.9706 5.22906 19.6216C5.04231 19.3491 4.87549 19.1046 4.87907 19.096Z" fill="#0168AA"/>
</svg>
