<svg width="32" height="32" viewBox="0 0 32 32" fill="none" xmlns="http://www.w3.org/2000/svg">
<path d="M5.02084 27.1617C3.54848 25.7792 2.33564 24.1524 1.47236 22.3021C0.545513 20.3271 0 18.0974 0 15.7794V15.6858C0 7.02692 7.16052 0 15.9841 0C24.8076 0 31.9999 7.02692 31.9999 15.6858C31.9999 15.8106 31.9999 15.9353 31.9681 16.06H28.4832C28.4832 13.3626 27.5881 10.8834 26.0522 8.90839C24.5799 7.02692 22.5673 5.58203 20.2052 4.79722L20.0145 4.61012L20.1098 4.26709L19.7603 4.32945L19.5379 4.04879L19.379 4.36064H18.9976L19.1565 4.67248L18.9341 4.95315L19.2519 5.0467L19.3472 5.38973L19.6332 5.20262L19.951 5.35854V5.01551C22.3184 5.76914 24.3627 7.20883 25.8298 9.09549C27.3021 11.0081 28.1972 13.4249 28.1972 16.06H27.175C27.175 13.1131 25.9622 10.478 23.9761 8.59654C22.0589 6.74626 19.4054 5.58723 16.466 5.49368L16.6567 5.30657L15.9205 5.05709L15.7616 4.30347L15.1208 4.74005L14.4164 4.36584L14.3528 5.11946L13.6166 5.43131L14.1939 5.96664L13.9715 6.72027L14.7394 6.62672L15.2214 7.2556L15.6345 6.59553L16.4025 6.62672L16.1483 5.90427C19.0877 5.90427 21.7729 7.03211 23.6901 8.8824C25.6073 10.7015 26.7884 13.2119 26.7884 16.0652H24.5852C24.5852 14.4332 24.1032 12.926 23.3088 11.6734C22.6362 10.6391 21.7411 9.76076 20.6871 9.10069L21.0685 8.72648L20.4594 8.477L20.3641 7.84811L19.7868 8.15996L19.2413 7.81693L19.1459 8.44581L18.5051 8.66411L18.95 9.16826L18.7275 9.76596L19.4001 9.73478L19.7497 10.2701L20.131 9.73478L20.7719 9.79714L20.7401 9.61004C21.6352 10.2077 22.3713 10.9926 22.9433 11.9021C23.7431 13.0923 24.188 14.506 24.188 16.0756H21.2485C21.2485 14.9478 20.8672 13.9759 20.2264 13.1911C19.6808 12.4998 18.95 11.9697 18.0867 11.6214L18.3091 11.372L17.9278 11.2472L17.8642 10.8106L17.5147 11.0289L17.1651 10.8106L17.1016 11.216L16.6885 11.3408L16.9745 11.6526L16.8474 12.058L17.2605 12.0268L17.4829 12.3699L17.7371 12.0268L18.1502 12.0892L18.1185 11.9645C18.8546 12.2763 19.5273 12.7805 20.0039 13.3782C20.5812 14.1006 20.9308 15.0413 20.9625 16.0756H4.59714C4.62892 17.2347 4.85136 18.3677 5.20621 19.402C5.61931 20.4986 6.16483 21.5017 6.86923 22.4113L7.02812 22.2242L7.15523 22.4425H7.44122L7.34589 22.692L7.50478 22.9102L7.25056 22.9726L7.18701 23.2533L6.96456 23.0974L6.71034 23.1909V22.9414L6.45612 22.8167L6.64679 22.6296L6.61501 22.4113C5.94239 21.5017 5.40217 20.5298 5.01555 19.4644C4.66599 18.3989 4.43825 17.271 4.3747 16.0756H1.6895C1.72128 16.4187 1.72128 16.7669 1.75306 17.1099C1.78483 17.453 1.84839 17.8012 1.91195 18.113L2.00728 17.9883L2.13439 18.2378H2.42038L2.29327 18.4872L2.48394 18.7055L2.19794 18.7679L2.16616 19.0174L1.94372 18.8615L1.6895 18.9862L1.65772 18.7055L1.43528 18.612L1.62595 18.4249L1.56239 18.1754L1.72128 18.2066C1.65772 17.8324 1.59417 17.4841 1.56239 17.1411C1.53061 16.7981 1.49883 16.4498 1.49883 16.0756H0.317774C0.349551 18.2689 0.863285 20.3115 1.72657 22.193C2.62164 24.0433 3.83448 25.7376 5.37039 27.1202H5.40217L5.65639 26.7771L5.87883 27.1513H6.29194L6.13305 27.5256L6.38727 27.8374L5.97416 27.9621L5.91061 28.3675L5.56106 28.1181L5.17973 28.3052L5.14795 27.8998L4.76662 27.7127L5.0844 27.432L5.02084 27.1825V27.1617Z" fill="url(#paint0_radial_696_14909)"/>
<path d="M8.75781 20.0098V19.9786C8.75781 19.6668 8.98025 19.4121 9.30333 19.4121H9.43043C9.74821 19.4121 9.97595 19.6616 9.97595 19.9786V20.0098C9.97595 20.2905 9.7535 20.5451 9.43043 20.5451H9.30333C8.98555 20.5451 8.75781 20.2957 8.75781 20.0098ZM8.75781 25.2488V21.7354C8.75781 21.4235 8.98025 21.1688 9.30333 21.1688H9.43043C9.74821 21.1688 9.97595 21.4183 9.97595 21.7354V25.2488C9.97595 25.5607 9.7535 25.8153 9.43043 25.8153H9.30333C8.98555 25.8153 8.75781 25.5659 8.75781 25.2488ZM12.7512 25.2488V20.514H10.8022V19.9786C10.8022 19.6668 11.0564 19.4121 11.3795 19.4121H15.9819V19.9474C15.9819 20.2593 15.7277 20.514 15.4046 20.514H14.0646V25.2488C14.0646 25.5607 13.8104 25.8153 13.4874 25.8153H13.2967C12.9789 25.8153 12.7512 25.5659 12.7512 25.2488ZM19.3026 24.4016L19.3344 24.4328C19.5251 24.464 19.684 24.5887 19.7793 24.7759C19.8429 24.9941 19.7793 25.1812 19.6522 25.3424C19.5569 25.4359 19.4615 25.4983 19.3662 25.5607C19.0166 25.8101 18.5982 25.9349 18.058 25.9349C17.2583 25.9349 16.6492 25.6542 16.2361 25.1189C15.9501 24.7135 15.7912 24.1781 15.7912 23.5181C15.7912 22.7644 15.9819 22.1667 16.4003 21.7302C16.8187 21.2936 17.3271 21.0701 17.9362 21.0701C18.6406 21.0701 19.2126 21.2884 19.5992 21.7613C19.917 22.1044 20.113 22.6085 20.1765 23.2374C20.1765 23.4245 20.1447 23.5493 20.0176 23.674C19.9223 23.7987 19.7952 23.8299 19.6363 23.8299H17.0782C17.0782 24.2041 17.1735 24.49 17.3642 24.7083C17.5549 24.8954 17.8091 24.9889 18.1004 24.9889C18.2911 24.9889 18.4499 24.9578 18.5823 24.833C18.6459 24.8018 18.7095 24.7395 18.7412 24.6459C18.8683 24.4588 19.0908 24.3653 19.3185 24.3964L19.3026 24.4016ZM18.9531 23.1179C18.9531 22.7437 18.8578 22.489 18.6671 22.3019C18.5082 22.1148 18.2858 22.0212 18.0262 22.0212C17.7402 22.0212 17.5125 22.1148 17.3536 22.3019C17.163 22.489 17.0994 22.7748 17.0994 23.1179H18.9531ZM24.6095 22.6813H24.5459C24.3235 22.7437 24.101 22.6189 23.9686 22.4318C23.9368 22.3383 23.8733 22.2759 23.8097 22.2447C23.6509 22.12 23.4602 22.0576 23.2324 22.0576C22.9147 22.0576 22.6869 22.1512 22.4963 22.3694C22.3056 22.5877 22.2103 22.936 22.2103 23.4349C22.2103 23.9702 22.3056 24.3756 22.4963 24.5939C22.6869 24.8122 22.9412 24.937 23.2324 24.937C23.4867 24.937 23.6773 24.8746 23.8415 24.7187C23.9051 24.6563 23.9686 24.5628 24.0322 24.438C24.1275 24.2197 24.3817 24.095 24.6413 24.1262L24.7366 24.1574C24.8955 24.1885 25.0544 24.2821 25.1179 24.438C25.2132 24.5939 25.2132 24.781 25.1179 24.9422C24.9908 25.1605 24.8319 25.3476 24.636 25.5087C24.2864 25.7893 23.8044 25.9453 23.1954 25.9453C22.491 25.9453 21.9508 25.727 21.5324 25.2852C21.114 24.8434 20.9233 24.2821 20.9233 23.4973C20.9233 22.7125 21.114 22.146 21.5324 21.7094C21.9455 21.304 22.491 21.0805 23.1954 21.0805C23.7727 21.0805 24.2493 21.2052 24.5724 21.4547C24.7313 21.5482 24.8584 21.673 24.9537 21.7977C25.0808 21.9536 25.0808 22.1408 25.0173 22.3331C24.9537 22.5254 24.7948 22.6449 24.6042 22.6761L24.6095 22.6813ZM27.4853 19.9838V21.8029C27.8984 21.33 28.3804 21.0805 28.9577 21.0805C29.2437 21.0805 29.5032 21.1429 29.7256 21.2364C29.9481 21.33 30.1388 21.4859 30.2394 21.6418C30.3665 21.7977 30.4618 21.9848 30.4936 22.1771C30.5254 22.3694 30.5572 22.6813 30.5572 23.0867V25.2488C30.5572 25.5607 30.3029 25.8153 29.9799 25.8153H29.8528C29.5668 25.8153 29.3072 25.5659 29.3072 25.2488V23.3673C29.3072 22.8632 29.2755 22.5825 29.2437 22.4578C29.1801 22.3019 29.1166 22.2083 28.9895 22.146C28.8624 22.0524 28.7035 22.0212 28.5446 22.0212C28.3221 22.0212 28.1315 22.0524 27.9673 22.1771C27.8084 22.2707 27.6813 22.4266 27.6177 22.6137C27.5224 22.8008 27.4906 23.1179 27.4906 23.4921V25.2488C27.4906 25.5607 27.2364 25.8153 26.9451 25.8153H26.818C26.5002 25.8153 26.2407 25.5659 26.2407 25.2488V19.9786C26.2407 19.6668 26.4949 19.4121 26.818 19.4121H26.9451C27.2311 19.4121 27.4906 19.6616 27.4906 19.9786L27.4853 19.9838ZM8.84785 31.9015V27.4161C8.84785 27.1355 9.10207 26.8808 9.36158 26.8808H9.39336C9.67936 26.8808 9.9071 27.1303 9.9071 27.4161V31.0543H12.497V31.3974C12.497 31.678 12.2427 31.9015 11.9514 31.9015H8.85315H8.84785ZM13.964 29.36L13.7734 29.3288C13.5827 29.2976 13.4238 29.1729 13.3602 28.9546C13.3285 28.7675 13.392 28.5492 13.5827 28.4192C13.8369 28.2633 14.1918 28.1698 14.6684 28.1698C15.1133 28.1698 15.4364 28.2321 15.6588 28.3257C15.8813 28.4192 16.0084 28.544 16.1037 28.6999C16.199 28.8558 16.2308 29.1365 16.2308 29.5783V30.7061C16.2308 31.018 16.2308 31.2726 16.2626 31.3974C16.2944 31.5533 16.3579 31.7404 16.4533 31.9015H15.8442C15.6217 31.9015 15.4311 31.7768 15.3622 31.5585L15.3305 31.5273C15.1716 31.6832 14.9809 31.808 14.7849 31.8703C14.5943 31.9639 14.4036 31.9951 14.1759 31.9951C13.7945 31.9951 13.5032 31.9015 13.2808 31.6832C13.0584 31.4961 12.9313 31.2466 12.9313 30.9296C12.9313 30.7113 12.9948 30.5242 13.0901 30.3631C13.1855 30.202 13.3444 30.0824 13.5032 29.9889C13.6939 29.8953 13.9481 29.8329 14.303 29.7706C14.7479 29.677 15.0709 29.6147 15.2616 29.5211V29.4275C15.2616 29.2404 15.198 29.1157 15.1345 29.0221C15.0392 28.9598 14.8485 28.9286 14.589 28.9286C14.3983 28.9286 14.2712 28.9598 14.1759 29.0221C14.0805 29.0845 13.9852 29.2093 13.9534 29.3652L13.964 29.36ZM15.2722 30.1448C15.1451 30.2072 14.9544 30.2383 14.6631 30.3007C14.4089 30.3631 14.2182 30.4255 14.1176 30.4566C13.9905 30.5502 13.9269 30.6749 13.9269 30.7997C13.9269 30.9556 13.9905 31.0491 14.0858 31.1739C14.1812 31.2674 14.3083 31.2986 14.4672 31.2986C14.6578 31.2986 14.8167 31.2362 14.9809 31.1427C15.108 31.0491 15.2033 30.9556 15.2351 30.8308C15.2351 30.7373 15.2669 30.5814 15.2669 30.3267V30.1396L15.2722 30.1448ZM17.1577 31.9015V26.8496H17.6396C17.9256 26.8496 18.1534 27.0679 18.1534 27.3538V28.6687C18.4711 28.3257 18.826 28.1646 19.2391 28.1646C19.684 28.1646 20.0706 28.3205 20.3566 28.6375C20.6744 28.9806 20.8015 29.4223 20.8015 30.0512C20.8015 30.6801 20.6426 31.1479 20.3566 31.4961C20.0388 31.8391 19.684 32.0003 19.2391 32.0003C19.0484 32.0003 18.826 31.9379 18.63 31.8443C18.4076 31.7196 18.2487 31.5949 18.0845 31.3714V31.4026C18.0845 31.6832 17.8621 31.9067 17.5708 31.9067H17.1577V31.9015ZM18.1481 29.9889C18.1481 30.3943 18.2116 30.6801 18.3069 30.836C18.4976 31.1167 18.7201 31.2414 19.0113 31.2414C19.2338 31.2414 19.3927 31.1479 19.5569 30.9608C19.721 30.7737 19.7793 30.4878 19.7793 30.0824C19.7793 29.677 19.7157 29.36 19.5569 29.1729C19.398 28.9858 19.2073 28.9234 18.9796 28.9234C18.7253 28.9234 18.5347 28.9858 18.3705 29.1729C18.2063 29.36 18.1481 29.6458 18.1481 29.9889ZM21.2464 30.8672L21.8554 30.7737C22.0461 30.7425 22.2368 30.836 22.3692 30.992C22.4009 31.0543 22.4327 31.1167 22.4963 31.1479C22.6234 31.2414 22.814 31.3038 23.0418 31.3038C23.296 31.3038 23.4867 31.2414 23.6191 31.1479C23.7144 31.0855 23.7462 31.0232 23.7462 30.8984C23.7462 30.836 23.7144 30.7737 23.6826 30.7113C23.6191 30.6801 23.5237 30.6178 23.3649 30.5866C22.5651 30.4306 22.0567 30.2747 21.8289 30.1136C21.5429 29.9265 21.3841 29.6406 21.3841 29.2976C21.3841 28.9858 21.5112 28.6999 21.7654 28.4816C22.0196 28.2633 22.438 28.1698 22.9465 28.1698C23.4549 28.1698 23.8415 28.2633 24.0957 28.4192C24.35 28.5752 24.5088 28.8246 24.6095 29.1417L24.064 29.2352C23.8733 29.2664 23.6826 29.2041 23.5502 29.0793L23.4549 28.9858C23.3596 28.8922 23.2007 28.861 22.9729 28.861C22.7187 28.861 22.5281 28.8922 22.3956 28.9858C22.3321 29.0169 22.3003 29.0793 22.3003 29.1729C22.3003 29.2352 22.3321 29.2976 22.3956 29.3288C22.491 29.4223 22.777 29.4847 23.3225 29.6095C23.8362 29.7342 24.2176 29.8589 24.4082 30.046C24.6307 30.202 24.726 30.4514 24.726 30.7685C24.726 31.1115 24.5989 31.3974 24.3129 31.6468C24.0269 31.8651 23.6085 31.9899 23.0365 31.9899C22.5228 31.9899 22.1414 31.8963 21.8237 31.678C21.5377 31.4909 21.3417 31.2051 21.2464 30.862V30.8672Z" fill="white"/>
<defs>
<radialGradient id="paint0_radial_696_14909" cx="0" cy="0" r="1" gradientUnits="userSpaceOnUse" gradientTransform="translate(16.7273 15.4848) scale(22.6797 19.9931)">
<stop stop-color="#01CFF7"/>
<stop offset="0.39" stop-color="#044F99"/>
<stop offset="0.84" stop-color="#051989"/>
</radialGradient>
</defs>
</svg>
