<svg width="84" height="48" viewBox="0 0 84 48" fill="none" xmlns="http://www.w3.org/2000/svg">
<path d="M7.45045 32.1562C8.37649 32.1562 9.13417 32.2966 9.72347 32.5772C10.3268 32.8438 10.86 33.1595 11.323 33.5243C11.6036 33.7347 11.8141 33.7628 11.9544 33.6085C12.1087 33.4401 12.214 33.0542 12.2701 32.4509H12.7542C12.7261 32.9981 12.705 33.6646 12.691 34.4503C12.677 35.222 12.67 36.2533 12.67 37.5441H12.1859C12.1157 36.8987 12.0245 36.3515 11.9123 35.9025C11.8001 35.4395 11.6457 35.0326 11.4493 34.6818C11.2528 34.3311 10.9722 34.0154 10.6074 33.7347C10.2566 33.384 9.84974 33.1244 9.38672 32.956C8.9237 32.7876 8.43963 32.7035 7.93452 32.7035C7.17684 32.7035 6.53142 32.9069 5.99824 33.3138C5.46507 33.7067 5.03011 34.2469 4.69336 34.9344C4.37065 35.6219 4.13212 36.4006 3.97778 37.2705C3.82344 38.1264 3.74627 39.0174 3.74627 39.9434C3.74627 40.8835 3.82344 41.7885 3.97778 42.6584C4.14615 43.5143 4.39871 44.279 4.73545 44.9525C5.08623 45.626 5.53522 46.1592 6.08243 46.552C6.62964 46.9449 7.27506 47.1413 8.0187 47.1413C8.48173 47.1413 8.94475 47.0571 9.40777 46.8888C9.88482 46.7064 10.2917 46.4468 10.6285 46.1101C11.1757 45.6891 11.5475 45.17 11.7439 44.5526C11.9404 43.9212 12.0877 43.0864 12.1859 42.0481H12.67C12.67 43.381 12.677 44.4614 12.691 45.2892C12.705 46.103 12.7261 46.7906 12.7542 47.3518H12.2701C12.214 46.7485 12.1157 46.3696 11.9754 46.2153C11.8492 46.0609 11.6317 46.082 11.323 46.2784C10.8039 46.6432 10.2496 46.9659 9.66033 47.2466C9.08506 47.5132 8.34142 47.6464 7.4294 47.6464C5.94212 47.6464 4.63724 47.3448 3.51476 46.7414C2.40631 46.1381 1.54341 45.2682 0.926044 44.1317C0.308682 42.9952 0 41.6272 0 40.0276C0 38.4562 0.315697 37.0811 0.947091 35.9025C1.59252 34.7239 2.46945 33.8049 3.5779 33.1454C4.70038 32.486 5.99123 32.1562 7.45045 32.1562Z" fill="#B49C68"/>
<path d="M15.7023 32.4509C16.0531 32.4649 16.5231 32.479 17.1124 32.493C17.7158 32.507 18.3121 32.514 18.9014 32.514C19.5749 32.514 20.2273 32.507 20.8587 32.493C21.4901 32.479 21.9391 32.4719 22.2057 32.4719C23.5105 32.4719 24.5909 32.6193 25.4468 32.9139C26.3167 33.1945 26.9622 33.6085 27.3831 34.1557C27.8181 34.7029 28.0355 35.3623 28.0355 36.134C28.0355 36.6111 27.9373 37.0952 27.7409 37.5862C27.5445 38.0633 27.2077 38.5123 26.7307 38.9332C26.2676 39.3401 25.6292 39.6698 24.8154 39.9224C24.0016 40.1609 22.9774 40.2802 21.7426 40.2802H19.7222V39.8593H21.5322C22.36 39.8593 22.9844 39.7049 23.4053 39.3962C23.8403 39.0735 24.1349 38.6526 24.2893 38.1334C24.4576 37.6003 24.5418 37.011 24.5418 36.3655C24.5418 35.2571 24.3454 34.4012 23.9525 33.7979C23.5597 33.1805 22.8862 32.8718 21.9321 32.8718C21.3849 32.8718 21.0271 32.9911 20.8587 33.2296C20.7043 33.4681 20.6272 33.9522 20.6272 34.6818V45.1209C20.6272 45.626 20.6623 46.0048 20.7324 46.2574C20.8166 46.5099 20.9709 46.6783 21.1954 46.7625C21.4199 46.8467 21.7567 46.9028 22.2057 46.9309V47.3518C21.8268 47.3237 21.3498 47.3097 20.7745 47.3097C20.1992 47.2957 19.6169 47.2887 19.0276 47.2887C18.3542 47.2887 17.7158 47.2957 17.1124 47.3097C16.5231 47.3097 16.0531 47.3237 15.7023 47.3518V46.9309C16.1513 46.9028 16.488 46.8467 16.7125 46.7625C16.937 46.6783 17.0844 46.5099 17.1545 46.2574C17.2387 46.0048 17.2808 45.626 17.2808 45.1209V34.6818C17.2808 34.1627 17.2387 33.7838 17.1545 33.5453C17.0844 33.2928 16.93 33.1244 16.6915 33.0402C16.467 32.942 16.1373 32.8859 15.7023 32.8718V32.4509ZM19.6801 39.9224C20.2834 39.9364 20.8026 39.9645 21.2375 40.0066C21.6865 40.0487 22.0794 40.0908 22.4161 40.1329C22.7529 40.1609 23.0545 40.182 23.3211 40.196C24.5979 40.3082 25.538 40.5819 26.1414 41.0168C26.7587 41.4518 27.1586 42.1042 27.341 42.9741L27.8251 45.1419C27.9513 45.7032 28.0846 46.096 28.225 46.3205C28.3653 46.545 28.5687 46.6573 28.8353 46.6573C29.0177 46.6432 29.165 46.6011 29.2773 46.531C29.4036 46.4468 29.5368 46.3275 29.6772 46.1732L29.9718 46.4258C29.593 46.8607 29.1861 47.1694 28.7511 47.3518C28.3162 47.5482 27.79 47.6464 27.1726 47.6464C26.415 47.6464 25.7906 47.4851 25.2995 47.1624C24.8084 46.8397 24.4857 46.2434 24.3314 45.3734L23.9525 43.2688C23.8543 42.6795 23.735 42.1674 23.5947 41.7324C23.4544 41.2834 23.258 40.9326 23.0054 40.6801C22.7669 40.4135 22.4302 40.2802 21.9952 40.2802H19.7222L19.6801 39.9224Z" fill="#B49C68"/>
<path d="M38.9667 32.1562C40.454 32.1562 41.7519 32.4579 42.8603 33.0612C43.9828 33.6646 44.8527 34.5345 45.4701 35.671C46.0874 36.7935 46.3961 38.1615 46.3961 39.7751C46.3961 41.3465 46.0804 42.7216 45.449 43.9002C44.8176 45.0788 43.9337 45.9978 42.7972 46.6573C41.6747 47.3167 40.3909 47.6464 38.9457 47.6464C37.4584 47.6464 36.1535 47.3448 35.031 46.7414C33.9226 46.1381 33.0597 45.2682 32.4423 44.1317C31.8249 42.9952 31.5163 41.6272 31.5163 40.0276C31.5163 38.4562 31.832 37.0811 32.4633 35.9025C33.1088 34.7239 33.9857 33.8049 35.0942 33.1454C36.2166 32.486 37.5075 32.1562 38.9667 32.1562ZM38.8825 32.5351C38.0968 32.5351 37.4093 32.8508 36.82 33.4822C36.2447 34.1136 35.7957 34.9835 35.473 36.0919C35.1643 37.2004 35.01 38.4842 35.01 39.9434C35.01 41.4307 35.1854 42.7286 35.5361 43.837C35.9009 44.9315 36.385 45.7803 36.9883 46.3837C37.6057 46.973 38.2862 47.2676 39.0298 47.2676C39.8156 47.2676 40.4961 46.9519 41.0714 46.3205C41.6607 45.6891 42.1096 44.8192 42.4183 43.7108C42.741 42.5883 42.9024 41.3044 42.9024 39.8593C42.9024 38.3579 42.72 37.0601 42.3552 35.9657C42.0044 34.8712 41.5203 34.0294 40.903 33.4401C40.2996 32.8368 39.6262 32.5351 38.8825 32.5351Z" fill="#B49C68"/>
<path d="M68.4615 32.4509V32.8718C68.1528 32.9841 67.8301 33.2296 67.4934 33.6085C67.1566 33.9733 66.862 34.5626 66.6094 35.3764L62.9052 47.3939C62.793 47.3799 62.6737 47.3728 62.5475 47.3728C62.4212 47.3728 62.2949 47.3728 62.1686 47.3728C62.0423 47.3728 61.9161 47.3728 61.7898 47.3728C61.6635 47.3728 61.5442 47.3799 61.432 47.3939L57.0122 34.0083C56.8719 33.5734 56.6965 33.2787 56.4861 33.1244C56.2896 32.97 56.0792 32.8859 55.8547 32.8718V32.4509C56.2476 32.4649 56.7106 32.479 57.2437 32.493C57.791 32.507 58.3312 32.514 58.8643 32.514C59.4817 32.514 60.057 32.507 60.5901 32.493C61.1373 32.479 61.5723 32.4649 61.895 32.4509V32.8718C61.4741 32.8859 61.1373 32.935 60.8848 33.0192C60.6463 33.1033 60.5059 33.2647 60.4639 33.5032C60.4358 33.7418 60.506 34.1206 60.6743 34.6397L63.6629 43.7739L63.1788 44.6368L65.5571 37.0811C65.8938 36.0148 66.0552 35.1799 66.0412 34.5766C66.0271 33.9733 65.8658 33.5453 65.5571 33.2928C65.2484 33.0262 64.8064 32.8859 64.2312 32.8718V32.4509C64.7082 32.4649 65.1572 32.479 65.5781 32.493C65.9991 32.507 66.42 32.514 66.8409 32.514C67.1637 32.514 67.4583 32.507 67.7249 32.493C68.0055 32.479 68.2511 32.4649 68.4615 32.4509ZM53.4343 32.4509V32.8718C53.1537 32.9139 52.9573 33.0192 52.845 33.1875C52.7328 33.3419 52.6837 33.5523 52.6977 33.8189C52.7258 34.0715 52.7889 34.3451 52.8871 34.6397L56.1072 43.9844L55.539 44.742L58.2329 36.8707L58.5276 37.4389L55.2233 47.3939C55.111 47.3799 54.9918 47.3728 54.8655 47.3728C54.7392 47.3728 54.6129 47.3728 54.4867 47.3728C54.3604 47.3728 54.2341 47.3728 54.1078 47.3728C53.9815 47.3728 53.8623 47.3799 53.75 47.3939L49.0356 34.2188C48.8532 33.6997 48.6357 33.3489 48.3832 33.1665C48.1447 32.9841 47.9202 32.8859 47.7097 32.8718V32.4509C48.1306 32.4649 48.6287 32.479 49.204 32.493C49.7793 32.507 50.3265 32.514 50.8456 32.514C51.4069 32.514 51.905 32.507 52.3399 32.493C52.7889 32.479 53.1537 32.4649 53.4343 32.4509Z" fill="#B49C68"/>
<path d="M83.968 32.4509V32.8718C83.519 32.928 83.1823 33.0472 82.9578 33.2296C82.7333 33.398 82.5789 33.6716 82.4947 34.0504C82.4246 34.4293 82.3895 34.9624 82.3895 35.65V47.3939C82.2211 47.3799 82.0458 47.3728 81.8633 47.3728C81.695 47.3728 81.5126 47.3799 81.3161 47.3939L72.182 35.8183V43.9002C72.182 44.6719 72.2241 45.2682 72.3083 45.6891C72.3924 46.096 72.5748 46.3907 72.8555 46.5731C73.1501 46.7415 73.6061 46.8607 74.2235 46.9309V47.3518C73.9569 47.3237 73.6061 47.3097 73.1712 47.3097C72.7362 47.2957 72.3293 47.2887 71.9505 47.2887C71.6278 47.2887 71.298 47.2957 70.9613 47.3097C70.6245 47.3097 70.3439 47.3237 70.1194 47.3518V46.9309C70.5684 46.8607 70.9052 46.7415 71.1296 46.5731C71.3541 46.4047 71.5015 46.1311 71.5716 45.7523C71.6558 45.3594 71.6979 44.8262 71.6979 44.1527V34.6818C71.6979 34.1627 71.6558 33.7838 71.5716 33.5453C71.5015 33.2928 71.3471 33.1244 71.1086 33.0402C70.8841 32.942 70.5544 32.8859 70.1194 32.8718V32.4509C70.3439 32.4649 70.6245 32.479 70.9613 32.493C71.298 32.507 71.6278 32.514 71.9505 32.514C72.2872 32.514 72.6099 32.507 72.9186 32.493C73.2273 32.479 73.5079 32.4649 73.7605 32.4509L81.9054 42.4901V35.9025C81.9054 35.1308 81.8633 34.5415 81.7792 34.1346C81.695 33.7137 81.5056 33.412 81.2109 33.2296C80.9303 33.0472 80.4813 32.928 79.8639 32.8718V32.4509C80.1305 32.4649 80.4813 32.479 80.9163 32.493C81.3512 32.507 81.7581 32.514 82.1369 32.514C82.4737 32.514 82.8034 32.507 83.1261 32.493C83.4629 32.479 83.7435 32.4649 83.968 32.4509Z" fill="#B49C68"/>
<path d="M52.8347 16.7431L54.2222 19.1565H49.6176L52.3765 16.7431L51.1434 0.532657L45.8369 16.7431L47.6046 19.1565H43.0712L45.3354 16.7431L42.0656 0L38.7966 16.7431L41.0608 19.1565H36.5274L38.2951 16.7431L32.992 0.533525L31.7572 16.7431L34.5161 19.1565H29.9106L31.2947 16.7431L24.5234 1.21452L28.675 19.7525L29.2911 20.2262V24.5542H54.8265V20.2166L54.835 20.2305L55.4511 19.7568L59.6009 1.21887L52.8347 16.7431Z" fill="#B49C68"/>
</svg>
