<svg width="19" height="19" viewBox="0 0 19 19" fill="none" xmlns="http://www.w3.org/2000/svg">
<path d="M9.5 18.5C14.4705 18.5 18.5 14.4705 18.5 9.5C18.5 4.52955 14.4705 0.5 9.5 0.5M9.5 18.5C4.52955 18.5 0.5 14.4705 0.5 9.5C0.5 4.52955 4.52955 0.5 9.5 0.5M9.5 18.5C11.9545 18.5 12.7727 14.4091 12.7727 9.5C12.7727 4.59091 11.9545 0.5 9.5 0.5M9.5 18.5C7.04545 18.5 6.22727 14.4091 6.22727 9.5C6.22727 4.59091 7.04545 0.5 9.5 0.5M1.31818 12.7727H17.6818M1.31818 6.22727H17.6818" stroke="#B49C68"/>
</svg>
