<svg width="32" height="32" viewBox="0 0 32 32" fill="none" xmlns="http://www.w3.org/2000/svg">
<circle cx="16" cy="16" r="16" fill="#F7931A"/>
<path d="M23.0123 13.9414C23.3334 11.8118 21.7079 10.6706 19.4913 9.90637L20.2098 7.02275L18.4518 6.5846L17.7537 9.3918C17.29 9.27462 16.8162 9.16763 16.3474 9.06064L17.0506 6.23307L15.2977 5.79492L14.5792 8.67854C14.197 8.59193 13.82 8.50532 13.4582 8.41361V8.40342L11.0378 7.79715L10.569 9.67201C10.569 9.67201 11.8735 9.9726 11.8429 9.98788C12.5563 10.1662 12.6837 10.6349 12.6633 11.0068L11.8429 14.2929C11.8939 14.3031 11.955 14.3235 12.0263 14.349C11.9703 14.3337 11.9041 14.3184 11.8429 14.3031L10.6964 18.9037C10.6098 19.1176 10.3907 19.4437 9.89132 19.3214C9.9066 19.3469 8.61743 19.0005 8.61743 19.0005L7.74609 21.0078L10.0289 21.5784C10.4518 21.6854 10.8697 21.7975 11.2824 21.8994L10.5537 24.8186L12.3066 25.2568L13.0251 22.3732C13.5041 22.5056 13.9678 22.6228 14.4263 22.7349L13.7079 25.6083L15.4658 26.0465L16.1945 23.1374C19.1907 23.7029 21.4378 23.4736 22.3856 20.7683C23.1499 18.5878 22.3499 17.3294 20.7703 16.5091C21.9168 16.2442 22.783 15.4902 23.0123 13.9312V13.9414ZM19.0021 19.566C18.462 21.7465 14.7881 20.5696 13.6009 20.2741L14.5639 16.4123C15.7563 16.7078 19.5728 17.2988 19.0021 19.5711V19.566ZM19.5474 13.9108C19.0531 15.8927 15.9958 14.8839 15.0072 14.6394L15.8837 11.1342C16.8722 11.3787 20.0671 11.8424 19.5525 13.9108H19.5474Z" fill="white"/>
</svg>
